PathFileType	4	(X/Y/Z)	/Users/itak/Documents/Research/Walk-IL/dataset/trc/00356_00011.trc
DataRate	CameraRate	NumFrames	NumMarkers	Units	OrigDataRate	OrigDataStartFrame	OrigNumFrames
100.000000	100.000000	4	54	mm	100.000000	182	729
Frame#	Time	RPSI			LPSI			STRN			T10			C7			CLAV			RBAK			LBAK			LSHO			LUPA			LAEL			LAOL			LWTS			LWPS			LFRA			LIFD			LHPS			LHTS			RSHO			RUPA			RAEL			RAOL			RWTS			RWPS			RFRA			RIFD			RHTS			RHPS			RBHD			LFHD			RFHD			LBHD			LHIP			RHIP			RASI			LASI			LKNE			LTHI			LANK			LTIP			LTOE			LMT1			LMT5			LHEE			RKNE			RANK			RTIP			RTOE			RMT1			RMT5			RHEE			L3			RTHI			*53			
		X1	Y1	Z1	X2	Y2	Z2	X3	Y3	Z3	X4	Y4	Z4	X5	Y5	Z5	X6	Y6	Z6	X7	Y7	Z7	X8	Y8	Z8	X9	Y9	Z9	X10	Y10	Z10	X11	Y11	Z11	X12	Y12	Z12	X13	Y13	Z13	X14	Y14	Z14	X15	Y15	Z15	X16	Y16	Z16	X17	Y17	Z17	X18	Y18	Z18	X19	Y19	Z19	X20	Y20	Z20	X21	Y21	Z21	X22	Y22	Z22	X23	Y23	Z23	X24	Y24	Z24	X25	Y25	Z25	X26	Y26	Z26	X27	Y27	Z27	X28	Y28	Z28	X29	Y29	Z29	X30	Y30	Z30	X31	Y31	Z31	X32	Y32	Z32	X33	Y33	Z33	X34	Y34	Z34	X35	Y35	Z35	X36	Y36	Z36	X37	Y37	Z37	X38	Y38	Z38	X39	Y39	Z39	X40	Y40	Z40	X41	Y41	Z41	X42	Y42	Z42	X43	Y43	Z43	X44	Y44	Z44	X45	Y45	Z45	X46	Y46	Z46	X47	Y47	Z47	X48	Y48	Z48	X49	Y49	Z49	X50	Y50	Z50	X51	Y51	Z51	X52	Y52	Z52	X53	Y53	Z53	X54	Y54	Z54	

183	1.82	-172.6313629150391	961.3082885742188	736.31640625	-239.7584075927734	969.2994995117188	848.3736572265625	-407.5712890625	1210.121826171875	673.8411865234375	-196.9792175292969	1145.64990234375	788.4281616210938	-242.0107574462891	1393.533569335938	777.703125	-372.7295837402344	1336.603759765625	695.2708129882812	-162.690673828125	1254.604248046875	744.0787963867188	-283.0727233886719	1358.585327148438	869.6614379882812	-384.4552001953125	1376.8759765625	876.5488891601562	-395.265380859375	1261.840576171875	950.947265625	-401.7307739257812	1058.801147460938	972.07421875	-320.5173950195312	1049.22802734375	946.115234375	-456.9737548828125	806.0114135742188	915.6851806640625	-442.0992736816406	801.6959838867188	982.7283325195312	-412.441650390625	954.127685546875	982.5809326171875	-445.4918518066406	646.96630859375	919.3831176757812	-432.1589050292969	731.6871337890625	984.5241088867188	-469.2134704589844	727.6705322265625	931.9608154296875	-206.7430267333984	1380.308471679688	609.9238891601562	-165.3695983886719	1315.999633789062	558.8532104492188	-169.559814453125	1048.970825195312	511.5383911132812	-169.7404937744141	1035.600952148438	604.82275390625	-348.7217407226562	873.043212890625	486.1181335449219	-294.71142578125	838.9702758789062	443.4586791992188	-200.5830535888672	988.3727416992188	487.4040832519531	-418.457763671875	716.55419921875	461.8436584472656	-403.1561584472656	788.8079223632812	450.4728393554688	-340.1813354492188	766.465087890625	431.3353881835938	-241.7730712890625	1600.014892578125	675.436279296875	-450.4054260253906	1597.567504882812	667.9647216796875	-382.0546875	1593.22705078125	592.9531860351562	-316.7375183105469	1604.66064453125	798.5892944335938	-369.3630676269531	922.4723510742188	896.7874145507812	-187.3826446533203	899.7080078125	604.9531860351562	-298.9856262207031	929.2050170898438	587.8140258789062	-440.2492370605469	943.807373046875	780.7962646484375	-541.3715209960938	491.0960388183594	833.0156860351562	-510.9346313476562	619.0831909179688	849.4755249023438	-303.6736755371094	172.4168853759766	1029.876953125	-435.5221862792969	322.7950744628906	938.8397216796875	-426.1217956542969	50.90788650512695	902.9281616210938	-351.731689453125	78.72376251220703	892.5201416015625	-396.9494018554688	94.14335632324219	997.1187133789062	-245.6956787109375	184.6898193359375	982.857666015625	-316.7902221679688	439.0924072265625	658.6815795898438	-282.9757080078125	50.56011581420898	792.3713989257812	-338.0690307617188	319.6558837890625	688.3621215820312	-472.2021179199219	44.08721923828125	729.8514404296875	-449.574462890625	39.01117324829102	794.90087890625	-356.2042846679688	39.81071853637695	721.7723999023438	-267.7774658203125	53.94380569458008	859.1698608398438	-201.4163360595703	1026.361694335938	784.4187622070312	-283.1890563964844	690.9403076171875	584.336669921875	nan	nan	nan	
184	1.83	-178.7148895263672	961.6412353515625	733.7031860351562	-247.394775390625	969.9462280273438	844.8546752929688	-412.7243041992188	1210.743286132812	667.7780151367188	-203.3176574707031	1146.42333984375	784.7537231445312	-248.5163116455078	1394.181396484375	773.4492797851562	-378.1224670410156	1337.14892578125	689.6439208984375	-168.5634460449219	1255.396240234375	740.6339721679688	-290.4699401855469	1359.176025390625	864.9835205078125	-391.9446105957031	1377.344604492188	870.7854614257812	-403.3421325683594	1262.317504882812	945.0538330078125	-409.435302734375	1059.252197265625	966.0997924804688	-328.2119140625	1049.833984375	940.8057861328125	-463.8628845214844	806.5037841796875	908.74560546875	-449.6874084472656	802.05224609375	975.9126586914062	-420.106201171875	954.5316162109375	976.3582763671875	-452.2575378417969	647.397216796875	912.1273193359375	-439.6687927246094	732.0614624023438	977.6333618164062	-476.2239990234375	728.1466064453125	924.675537109375	-211.4325561523438	1381.150512695312	606.0794677734375	-169.5834197998047	1316.846557617188	555.353271484375	-174.1080474853516	1049.804077148438	507.5328063964844	-174.6427001953125	1036.331665039062	600.7490234375	-355.5367431640625	876.6317138671875	481.1682739257812	-301.9957275390625	841.886962890625	438.5575561523438	-205.5764923095703	989.6339111328125	483.1500244140625	-427.7112121582031	721.33251953125	456.3201599121094	-411.2237854003906	793.3612670898438	445.1585388183594	-348.5554809570312	770.0668334960938	426.1603698730469	-247.3074035644531	1600.49609375	671.11474609375	-456.0254516601562	1598.102661132812	661.43798828125	-386.7199096679688	1593.661254882812	587.1485595703125	-323.6465454101562	1605.226318359375	793.4613647460938	-378.2230529785156	923.6591796875	890.654541015625	-191.3895111083984	899.60302734375	602.2848510742188	-302.6319274902344	929.2679443359375	583.1700439453125	-446.7628173828125	945.2388916015625	773.6593017578125	-553.0665893554688	494.4237670898438	820.9542846679688	-521.9191284179688	622.1094360351562	839.126953125	-332.7723388671875	163.3205871582031	1018.072143554688	-455.718017578125	320.7601928710938	926.8358154296875	-460.7354736328125	51.16875457763672	887.7359008789062	-384.26904296875	74.25226593017578	878.7711181640625	-430.2295532226562	91.81289672851562	982.6415405273438	-273.01123046875	172.6286163330078	972.3358154296875	-317.6490478515625	438.6548767089844	657.0634155273438	-283.0078125	50.64760589599609	792.3035278320312	-338.6281433105469	319.3882751464844	687.5701293945312	-472.1752319335938	43.95872497558594	729.7758178710938	-449.5641784667969	38.91787338256836	794.8924560546875	-356.2256164550781	39.79841613769531	721.7515869140625	-267.8834838867188	54.06609344482422	859.060791015625	-207.1858215332031	1027.223754882812	781.4664916992188	-285.9233703613281	690.5859375	582.0455322265625	nan	nan	nan	
185	1.84	-184.8431243896484	961.9087524414062	731.1320190429688	-255.1064147949219	970.4880981445312	841.34423828125	-417.8660888671875	1211.186279296875	661.6580200195312	-209.6415710449219	1147.109497070312	781.1610107421875	-255.0317535400391	1394.71484375	769.1714477539062	-383.5377807617188	1337.50927734375	683.9605102539062	-174.4690704345703	1256.058227539062	737.20751953125	-297.9566650390625	1359.627563476562	860.2495727539062	-399.5189208984375	1377.651000976562	864.9302978515625	-411.5433654785156	1262.61572265625	939.0452880859375	-417.3027648925781	1059.512329101562	959.9829711914062	-336.0282897949219	1050.248901367188	935.4737548828125	-470.7577819824219	806.8240356445312	901.5921020507812	-457.3979187011719	802.2280883789062	968.9076538085938	-427.9247741699219	954.7499389648438	969.9881591796875	-458.9736328125	647.654296875	904.6705322265625	-447.322509765625	732.2516479492188	970.5518188476562	-483.2550659179688	728.4401245117188	917.1455688476562	-216.1300201416016	1381.819702148438	602.2153930664062	-173.7744903564453	1317.51904296875	551.8659057617188	-178.532958984375	1050.4658203125	503.5497436523438	-179.3948364257812	1036.894897460938	596.6988525390625	-362.0573120117188	879.918701171875	476.3293762207031	-308.9745483398438	844.55517578125	433.7335815429688	-210.4246063232422	990.7012939453125	478.9383850097656	-436.4862060546875	725.76220703125	450.9509582519531	-418.9017028808594	797.570068359375	439.9938049316406	-356.5507507324219	773.3963623046875	421.0869140625	-252.8496398925781	1600.81591796875	666.7905883789062	-461.5981750488281	1598.498413085938	654.79931640625	-391.3362121582031	1593.964111328125	581.2877807617188	-330.5945129394531	1605.62451171875	788.2803344726562	-387.0842590332031	924.697021484375	884.4619140625	-195.4098510742188	899.44482421875	599.6818237304688	-306.1590576171875	929.2227783203125	578.6022338867188	-453.3354187011719	946.532470703125	766.4776611328125	-564.00244140625	497.3901062011719	809.01220703125	-532.3209228515625	624.8067626953125	828.8169555664062	-362.1992492675781	153.877685546875	1005.19384765625	-475.7000732421875	318.2837524414062	914.3867797851562	-494.7150573730469	51.61256790161133	871.0462646484375	-416.4851684570312	69.98515319824219	863.63623046875	-463.2186584472656	89.31407165527344	966.8408203125	-300.7795715332031	160.3165740966797	960.8097534179688	-318.6002197265625	438.1802673339844	655.3635864257812	-283.0473937988281	50.76358413696289	792.2449340820312	-339.3118896484375	319.0919189453125	686.7689208984375	-472.1636352539062	43.84160232543945	729.7133178710938	-449.5712585449219	38.80309677124023	794.8946533203125	-356.2581481933594	39.79266357421875	721.739990234375	-268.0240783691406	54.17239379882812	858.962158203125	-212.9909515380859	1027.968017578125	778.5361328125	-288.6100463867188	690.1929931640625	579.7808837890625	nan	nan	nan	
186	1.85	-191.0238342285156	962.0894165039062	728.5968627929688	-262.902099609375	970.907470703125	837.8130493164062	-422.9916381835938	1211.435424804688	655.4769897460938	-215.9341583251953	1147.702880859375	777.668212890625	-261.5486145019531	1395.122680664062	764.8753051757812	-389.0059814453125	1337.682983398438	678.2427368164062	-180.4207611083984	1256.575927734375	733.797607421875	-305.523193359375	1359.930908203125	855.4553833007812	-407.1618347167969	1377.791015625	858.9823608398438	-419.8515625	1262.730834960938	932.9214477539062	-425.3348693847656	1059.580078125	953.7291259765625	-343.9293518066406	1050.478393554688	930.1375732421875	-477.6692199707031	806.9693603515625	894.2440185546875	-465.2283325195312	802.2188720703125	961.7244262695312	-435.8935546875	954.7804565429688	963.4785766601562	-465.6605529785156	647.7421264648438	897.03173828125	-455.1141357421875	732.2501831054688	963.2908935546875	-490.305908203125	728.5484008789062	909.3931274414062	-220.8357391357422	1382.302978515625	598.333740234375	-177.942138671875	1318.004516601562	548.392333984375	-182.8460083007812	1050.945678710938	499.5845336914062	-184.0128479003906	1037.270874023438	592.664306640625	-368.2920227050781	882.8790283203125	471.6022338867188	-315.6468505859375	846.947509765625	428.9857177734375	-215.1380615234375	991.56689453125	474.7682800292969	-444.7960510253906	729.81396484375	445.7276000976562	-426.2043762207031	801.4098510742188	434.9721069335938	-364.1718444824219	776.4263916015625	416.1103210449219	-258.4054565429688	1600.974609375	662.4595336914062	-467.114501953125	1598.740356445312	648.0416259765625	-395.9052124023438	1594.1240234375	575.369873046875	-337.5802001953125	1605.852172851562	783.0459594726562	-395.9002075195312	925.5817260742188	878.250732421875	-199.4434204101562	899.2103881835938	597.135498046875	-309.532958984375	929.0440673828125	574.1085205078125	-459.9356384277344	947.6289672851562	759.2381591796875	-574.2040405273438	499.9492492675781	797.24072265625	-542.1344604492188	627.1195068359375	818.5748901367188	-391.9027099609375	144.2042846679688	991.1595458984375	-495.4798889160156	315.4010314941406	901.4537353515625	-527.8533325195312	52.26855087280273	852.7711791992188	-448.2122802734375	66.00209808349609	847.0714721679688	-495.8273315429688	86.69634246826172	949.6348266601562	-328.9670715332031	147.9057006835938	948.18798828125	-319.6629333496094	437.6787719726562	653.6279296875	-283.0954284667969	50.90546035766602	792.1978759765625	-340.1267395019531	318.7665710449219	685.9529418945312	-472.1701965332031	43.73461151123047	729.6708984375	-449.6010131835938	38.67311096191406	794.9074096679688	-356.302490234375	39.79517364501953	721.7388305664062	-268.1697998046875	54.27760314941406	858.8779907226562	-218.8862762451172	1028.581787109375	775.6098022460938	-291.2588500976562	689.7266845703125	577.5347290039062	nan	nan	nan	
